<svg width="676" height="676" viewBox="0 0 676 676" fill="none" xmlns="http://www.w3.org/2000/svg">
<g clip-path="url(#clip0_1_15)">
<path d="M531.61 398.32C537.05 417.03 542.48 434.57 546.9 452.32C547.48 454.66 543.52 459.25 540.59 461.15C500.46 487.15 460.15 512.92 419.87 538.72C409.87 545.16 399.75 551.55 388.62 558.64C388.62 535.49 388.5 513.79 388.82 492.09C388.82 490.09 391.21 487.38 393.2 486.09C438.89 457.02 484.69 428.05 531.61 398.32Z" fill="white"/>
<path d="M501.78 290.06C507.58 310.76 513.28 330.59 518.5 350.54C519.05 352.64 517.5 356.66 515.7 357.81C474.09 384.23 432.28 410.37 389.09 437.49C389.09 411.8 388.98 387.49 389.29 363.25C389.29 361.19 391.73 358.49 393.75 357.25C429.34 334.94 465.09 312.83 501.78 290.06Z" fill="white"/>
<path d="M304.67 676.16C286.5 663.73 268.56 651.02 250.09 639.06C171.09 587.82 92.0467 536.657 12.96 485.57C11.5373 484.502 10.3513 483.151 9.47694 481.602C8.60259 480.053 8.05884 478.34 7.88001 476.57C7.41001 457.34 7.64002 438.08 7.64002 416.75C21.41 425.41 34.64 433.55 47.64 441.92C131.4 495.62 215.19 549.287 299.01 602.92C305.5 607.05 307.21 611.38 307.07 618.43C306.67 637.68 306.93 656.95 306.93 676.22L304.67 676.16Z" fill="white"/>
<path d="M329.63 0C338.59 1.10667 347.55 2.21333 356.51 3.31999C384.23 6.78999 405.56 24.03 428.68 37.2C463.06 56.79 496.39 78.31 531.28 96.91C570.52 117.83 564.69 152.91 546.14 180.19C527.27 207.94 498.62 223.64 470.95 240.59C418.21 272.91 365.613 305.467 313.16 338.26C309.84 340.35 307.52 346.65 307.5 351C307.09 425.88 307.09 500.73 306.94 575.63V585.46C288.68 573.94 271.89 563.46 255.2 552.78C174.753 501.413 94.2966 450.043 13.83 398.67C7.82997 394.83 5.11996 390.76 4.97996 383.32C3.64663 308.087 1.97996 232.867 -0.0200388 157.66C-0.200039 150.66 1.68996 146.76 7.67996 143.29C72.46 105.79 136.73 67.4 201.94 30.66C234.94 12.06 271.82 4.73999 309.43 1.65999C313.15 1.34999 316.83 0.589993 320.53 0.0399933L329.63 0ZM232.25 402.13C232.25 368.03 232.41 335.93 232.12 303.83C232.06 297.46 233.76 293.83 239.57 290.43C264.31 276 288.75 261.04 313.11 245.95C333.92 233.06 355.32 220.89 374.88 206.29C397.8 189.19 395.71 163.72 371.7 148.74C356.04 138.96 339.55 130.42 324.45 119.86C286.06 93 245.45 94.3 206.45 114.23C161.54 137.17 118.8 164.38 75.36 190.14C72.68 191.73 70.74 196.85 70.74 200.33C70.74 231.33 71.02 262.33 72.07 293.27C72.22 297.75 75.94 303.67 79.8 306.2C109.44 325.58 139.48 344.36 169.48 363.2C190.09 376.15 210.87 388.89 232.25 402.13Z" fill="white"/>
</g>
<defs>
<clipPath id="clip0_1_15">
<rect width="676" height="676" fill="white"/>
</clipPath>
</defs>
</svg>
